<svg width="32" height="37" viewBox="0 0 32 37" fill="none" xmlns="http://www.w3.org/2000/svg">
<path d="M15.9046 32.3954L16 32.4908L16.0954 32.3954L25.3538 23.1371L25.3933 23.0975V23.0417V23.0149V22.9882V22.9614V22.9346V22.9077V22.8808V22.8539V22.8269V22.8V22.7729V22.7459V22.7188V22.6917V22.6646V22.6374V22.6102V22.583V22.5557V22.5284V22.5011V22.4737V22.4463V22.4189V22.3915V22.364V22.3365V22.3089V22.2814V22.2538V22.2262V22.1985V22.1708V22.1431V22.1154V22.0876V22.0598V22.032V22.0041V21.9763V21.9483V21.9204V21.8924V21.8645V21.8364V21.8084V21.7803V21.7522V21.7241V21.6959V21.6678V21.6395V21.6113V21.5831V21.5548V21.5265V21.4981V21.4698V21.4414V21.413V21.3845V21.3561V21.3276V21.299V21.2705V21.2419V21.2134V21.1847V21.1561V21.1274V21.0988V21.07V21.0413V21.0126V20.9838V20.955V20.9261V20.8973V20.8684V20.8395V20.8106V20.7817V20.7527V20.7237V20.6947V20.6657V20.6366V20.6075V20.5785V20.5493V20.5202V20.491V20.4619V20.4326V20.4034V20.3742V20.3449V20.3156V20.2863V20.257V20.2276V20.1983V20.1689V20.1395V20.1101V20.0806V20.0511V20.0217V19.9922V19.9626V19.9331V19.9035V19.874V19.8444V19.8147V19.7851V19.7554V19.7258V19.6961V19.6664V19.6367V19.6069V19.5772V19.5474V19.5176V19.4878V19.4579V19.4281V19.3982V19.3684V19.3385V19.3086V19.2786V19.2487V19.2187V19.1888V19.1588V19.1288V19.0988V19.0687V19.0387V19.0086V18.9785V18.9484V18.9183V18.8882V18.8581V18.8279V18.7977V18.7676V18.7374V18.7072V18.6769V18.6467V18.6165V18.5862V18.5559V18.5256V18.4953V18.465V18.4347V18.4044V18.374V18.3437V18.3133V18.2829V18.2525V18.2221V18.1917V18.1612V18.1308V18.1003V18.0699V18.0394V18.0089V17.9784V17.9479V17.9174V17.8869V17.8563V17.8258V17.7952V17.7647V17.7341V17.7035V17.6729V17.6423V17.6117V17.5811V17.5504V17.5198V17.4892V17.4585V17.4278V17.3972V17.3665V17.3358V17.3051V17.2744V17.2437V17.213V17.1822V17.1515V17.1208V17.09V17.0593V17.0285V16.9977V16.967V16.9362V16.9054V16.8746V16.8438V16.813V16.7822V16.7514V16.7206V16.6897V16.6589V16.6281V16.5972V16.5664V16.5355V16.5047V16.4738V16.443V16.4121V16.3812V16.3504V16.3195V16.2886V16.2577V16.2268V16.1959V16.1651V16.1342V16.1033V16.0724V16.0415V16.0105V15.9796V15.9487V15.9178V15.8869V15.856V15.8251V15.7942V15.7632V15.7323V15.7014V15.6705V15.6395V15.6086V15.5777V15.5468V15.5158V15.4849V15.454V15.4231V15.3921V15.3612V15.3303V15.2994V15.2684V15.2375V15.2066V15.1757V15.1447V15.1138V15.0829V15.052V15.0211V14.9902V14.9593V14.9284V14.8974V14.8665V14.8356V14.8047V14.7739V14.743V14.7121V14.6812V14.6503V14.6194V14.5885V14.5577V14.5268V14.4959V14.4651V14.4342V14.4034V14.3725V14.3417V14.3108V14.28V14.2492V14.2184V14.1875V14.1567V14.1259V14.0951V14.0643V14.0335V14.0028V13.972V13.9412V13.9104V13.8797V13.8489V13.8182V13.7874V13.7567V13.726V13.6953V13.6646V13.6339V13.6032V13.5725V13.5418V13.5111V13.4805V13.4498V13.4192V13.3885V13.3579V13.3273V13.2967V13.2661V13.2355V13.2049V13.1743V13.1438V13.1132V13.0827V13.0521V13.0216V12.9911V12.9606V12.9301V12.8996V12.8691V12.8387V12.8082V12.7778V12.7473V12.7169V12.6865V12.6561V12.6258V12.5954V12.565V12.5347V12.5043V12.474V12.4437V12.4134V12.3831V12.3529V12.3226V12.2924V12.2621V12.2319V12.2017V12.1715V12.1413V12.1112V12.081V12.0509V12.0208V11.9907V11.9606V11.9305V11.9004V11.8704V11.8404V11.8104V11.7804V11.7504V11.7204V11.6904V11.6605V11.6306V11.6007V11.5708V11.5409V11.5111V11.4812V11.4514V11.4216V11.3918V11.362V11.3323V11.3025V11.2728V11.2431V11.2134V11.1838V11.1541V11.1245V11.0949V11.0653V11.0357V11.0062V10.9766V10.9471V10.9176V10.8881V10.8587V10.8292V10.7998V10.7704V10.741V10.7116V10.6823V10.653V10.6237V10.5944V10.5651V10.5359V10.5067V10.4775V10.4483V10.4191V10.39V10.3609V10.3318V10.3027V10.2737V10.2447V10.2157V10.1867V10.1577V10.1288V10.0999V10.071V10.0421V10.0133V9.98445V9.95565V9.92688V9.89813V9.8694V9.8407V9.81202V9.78336V9.75473V9.72612V9.69754V9.66898V9.64045V9.61194V9.58346V9.555V9.52657V9.49816V9.46978V9.44142V9.41309V9.38479V9.35651V9.32825V9.30003V9.27183V9.24365V9.21551V9.18739V9.15929V9.13123V9.10319V9.07518V9.04719V9.01923V8.99131V8.9634V8.93553V8.90769V8.87987V8.85208V8.82432V8.79659V8.76888V8.74121V8.71356V8.68595V8.65836V8.6308V8.60327V8.57578V8.54831V8.52087V8.49346V8.46608V8.43873V8.41141V8.38412V8.35687V8.32964V8.30245V8.27528V8.24815V8.22105V8.19397V8.16693V8.13993V8.11295V8.08601V8.0591V8.03222V8.00537V7.97855V7.95177V7.92502V7.59923L25.1629 7.8296L22.2879 10.7045L22.2484 10.7441V10.8V21.7941L16 28.0425L9.75161 21.7941V10.8V10.7441L9.71208 10.7045L6.83708 7.8296L6.60671 7.59923V7.92502V7.95175V7.9785V8.00529V8.03212V8.05897V8.08586V8.11278V8.13973V8.16672V8.19373V8.22078V8.24786V8.27497V8.30211V8.32928V8.35649V8.38372V8.41098V8.43828V8.46561V8.49296V8.52035V8.54777V8.57521V8.60269V8.6302V8.65773V8.6853V8.71289V8.74051V8.76817V8.79585V8.82356V8.8513V8.87907V8.90686V8.93469V8.96254V8.99042V9.01833V9.04626V9.07423V9.10222V9.13024V9.15828V9.18636V9.21446V9.24258V9.27074V9.29892V9.32712V9.35536V9.38362V9.4119V9.44021V9.46855V9.49691V9.5253V9.55371V9.58215V9.61062V9.63911V9.66762V9.69616V9.72473V9.75331V9.78193V9.81056V9.83923V9.86791V9.89662V9.92535V9.95411V9.98289V10.0117V10.0405V10.0694V10.0982V10.1271V10.1561V10.185V10.214V10.243V10.272V10.301V10.33V10.3591V10.3882V10.4173V10.4465V10.4756V10.5048V10.534V10.5632V10.5925V10.6218V10.651V10.6804V10.7097V10.739V10.7684V10.7978V10.8272V10.8566V10.8861V10.9155V10.945V10.9745V11.004V11.0336V11.0631V11.0927V11.1223V11.1519V11.1816V11.2112V11.2409V11.2706V11.3003V11.33V11.3598V11.3895V11.4193V11.4491V11.4789V11.5087V11.5386V11.5684V11.5983V11.6282V11.6581V11.688V11.718V11.7479V11.7779V11.8079V11.8379V11.8679V11.898V11.928V11.9581V11.9881V12.0182V12.0484V12.0785V12.1086V12.1388V12.1689V12.1991V12.2293V12.2595V12.2897V12.32V12.3502V12.3805V12.4107V12.441V12.4713V12.5016V12.532V12.5623V12.5927V12.623V12.6534V12.6838V12.7142V12.7446V12.775V12.8054V12.8359V12.8663V12.8968V12.9273V12.9577V12.9882V13.0188V13.0493V13.0798V13.1103V13.1409V13.1714V13.202V13.2326V13.2632V13.2938V13.3244V13.355V13.3856V13.4162V13.4469V13.4775V13.5082V13.5388V13.5695V13.6002V13.6309V13.6616V13.6923V13.723V13.7537V13.7844V13.8152V13.8459V13.8767V13.9074V13.9382V13.9689V13.9997V14.0305V14.0613V14.0921V14.1229V14.1537V14.1845V14.2153V14.2461V14.2769V14.3078V14.3386V14.3694V14.4003V14.4311V14.462V14.4928V14.5237V14.5546V14.5854V14.6163V14.6472V14.6781V14.7089V14.7398V14.7707V14.8016V14.8325V14.8634V14.8943V14.9252V14.9561V14.987V15.0179V15.0489V15.0798V15.1107V15.1416V15.1725V15.2034V15.2344V15.2653V15.2962V15.3271V15.3581V15.389V15.4199V15.4508V15.4818V15.5127V15.5436V15.5745V15.6055V15.6364V15.6673V15.6982V15.7292V15.7601V15.791V15.8219V15.8528V15.8838V15.9147V15.9456V15.9765V16.0074V16.0383V16.0692V16.1001V16.131V16.1619V16.1928V16.2237V16.2546V16.2855V16.3164V16.3472V16.3781V16.409V16.4399V16.4707V16.5016V16.5324V16.5633V16.5941V16.625V16.6558V16.6867V16.7175V16.7483V16.7791V16.8099V16.8407V16.8715V16.9023V16.9331V16.9639V16.9947V17.0255V17.0562V17.087V17.1177V17.1485V17.1792V17.21V17.2407V17.2714V17.3021V17.3328V17.3635V17.3942V17.4249V17.4555V17.4862V17.5169V17.5475V17.5781V17.6088V17.6394V17.67V17.7006V17.7312V17.7618V17.7924V17.8229V17.8535V17.884V17.9146V17.9451V17.9756V18.0061V18.0366V18.0671V18.0975V18.128V18.1585V18.1889V18.2193V18.2497V18.2801V18.3105V18.3409V18.3713V18.4016V18.432V18.4623V18.4926V18.523V18.5533V18.5835V18.6138V18.6441V18.6743V18.7045V18.7348V18.765V18.7952V18.8253V18.8555V18.8856V18.9158V18.9459V18.976V19.0061V19.0362V19.0662V19.0963V19.1263V19.1563V19.1863V19.2163V19.2463V19.2762V19.3062V19.3361V19.366V19.3959V19.4258V19.4556V19.4854V19.5153V19.5451V19.5749V19.6046V19.6344V19.6641V19.6939V19.7236V19.7532V19.7829V19.8126V19.8422V19.8718V19.9014V19.931V19.9605V19.9901V20.0196V20.0491V20.0786V20.108V20.1375V20.1669V20.1963V20.2257V20.255V20.2844V20.3137V20.343V20.3723V20.4015V20.4308V20.46V20.4892V20.5184V20.5475V20.5767V20.6058V20.6349V20.6639V20.693V20.722V20.751V20.78V20.8089V20.8379V20.8668V20.8957V20.9246V20.9534V20.9822V21.011V21.0398V21.0685V21.0973V21.126V21.1547V21.1833V21.2119V21.2405V21.2691V21.2977V21.3262V21.3547V21.3832V21.4117V21.4401V21.4685V21.4969V21.5252V21.5536V21.5819V21.6102V21.6384V21.6666V21.6948V21.723V21.7512V21.7793V21.8074V21.8354V21.8635V21.8915V21.9195V21.9474V21.9754V22.0033V22.0311V22.059V22.0868V22.1146V22.1424V22.1701V22.1978V22.2255V22.2531V22.2807V22.3083V22.3359V22.3634V22.3909V22.4184V22.4458V22.4732V22.5006V22.5279V22.5553V22.5825V22.6098V22.637V22.6642V22.6914V22.7185V22.7456V22.7727V22.7997V22.8267V22.8537V22.8807V22.9076V22.9345V22.9613V22.9881V23.0149V23.0417V23.0975L6.64623 23.1371L15.9046 32.3954ZM15.9046 13.2246L16 13.32L16.0954 13.2246L25.3142 4.00576H27.99V24.1733L17.9338 34.2296L17.8383 34.325L17.9338 34.4204L19.9671 36.4538L20.0625 36.5492L20.1579 36.4538L31.0954 25.5163L31.1349 25.4767V25.4208V1V0.865052H31H24.0666H24.0107L23.9712 0.904577L16 8.87581L8.02872 0.904577L7.98919 0.865052H7.9333H1H0.865052V1V25.4208V25.4767L0.904577 25.5163L11.8421 36.4538L11.9375 36.5492L12.0329 36.4538L14.0662 34.4204L14.1617 34.325L14.0662 34.2296L4.00993 24.1733V4.00576H6.68576L15.9046 13.2246Z" fill="white" stroke="white" stroke-width="0.269896"/>
</svg>
