<svg width="497" height="559" viewBox="0 0 497 559" fill="none" xmlns="http://www.w3.org/2000/svg">
<path d="M475.411 1.00004L403.304 1.00004C400.011 1.00004 396.851 2.29722 394.511 4.61027L365.17 33.6075C361.69 37.0474 356.989 38.9773 352.09 38.9773L163.59 38.9773C158.691 38.9773 153.991 37.0473 150.51 33.6075L123.535 6.94735C119.68 3.13706 114.474 1 109.049 1L21.5895 1C10.22 0.999999 1.0001 10.2004 1.0001 21.5537L1.0001 133.61L1.00009 133.613L1 133.68L1.00001 537.446C1.00001 548.8 10.2199 558 21.5894 558H108.394C114.223 558 119.779 555.534 123.683 551.212L150.44 521.597C153.965 517.696 158.981 515.469 164.245 515.469H351.435C356.699 515.469 361.716 517.696 365.24 521.597L394.665 554.165C396.871 556.607 400.01 558 403.304 558H475.41C486.78 558 496 548.8 496 537.446V400.992V400.989L496 400.938L496 21.5537C496 10.2005 486.78 1.00004 475.411 1.00004Z" stroke="url(#paint0_linear_1521_48)" stroke-width="2"/>
<defs>
<linearGradient id="paint0_linear_1521_48" x1="127.5" y1="598" x2="424.261" y2="-13.8586" gradientUnits="userSpaceOnUse">
<stop stop-color="white" stop-opacity="0.2"/>
<stop offset="0.535192"/>
<stop offset="0.963542" stop-color="white" stop-opacity="0.2"/>
</linearGradient>
</defs>
</svg>
