<svg width="77" height="148" viewBox="0 0 77 148" fill="none" xmlns="http://www.w3.org/2000/svg">
<path d="M21.0754 4V2.01887H19.0942H4.02856H2.04743V4V117.536V118.357L2.62769 118.937L28.9923 145.302L29.5726 145.882H30.3932H30.4243H30.4553H30.4864H30.5175H30.5486H30.5796H30.6107H30.6418H30.6729H30.704H30.735H30.7661H30.7972H30.8283H30.8594H30.8905H30.9216H30.9526H30.9837H31.0148H31.0459H31.077H31.1081H31.1392H31.1703H31.2014H31.2325H31.2636H31.2947H31.3258H31.3569H31.388H31.4191H31.4502H31.4813H31.5124H31.5435H31.5747H31.6058H31.6369H31.668H31.6991H31.7302H31.7613H31.7924H31.8236H31.8547H31.8858H31.9169H31.948H31.9792H32.0103H32.0414H32.0725H32.1037H32.1348H32.1659H32.197H32.2282H32.2593H32.2904H32.3216H32.3527H32.3838H32.415H32.4461H32.4772H32.5084H32.5395H32.5707H32.6018H32.6329H32.6641H32.6952H32.7264H32.7575H32.7886H32.8198H32.8509H32.8821H32.9132H32.9444H32.9755H33.0067H33.0378H33.069H33.1001H33.1313H33.1624H33.1936H33.2247H33.2559H33.2871H33.3182H33.3494H33.3805H33.4117H33.4429H33.474H33.5052H33.5363H33.5675H33.5987H33.6298H33.661H33.6922H33.7233H33.7545H33.7857H33.8168H33.848H33.8792H33.9103H33.9415H33.9727H34.0039H34.035H34.0662H34.0974H34.1285H34.1597H34.1909H34.2221H34.2533H34.2844H34.3156H34.3468H34.378H34.4091H34.4403H34.4715H34.5027H34.5339H34.5651H34.5962H34.6274H34.6586H34.6898H34.721H34.7522H34.7833H34.8145H34.8457H34.8769H34.9081H34.9393H34.9705H35.0017H35.0329H35.064H35.0952H35.1264H35.1576H35.1888H35.22H35.2512H35.2824H35.3136H35.3448H35.376H35.4072H35.4384H35.4696H35.5008H35.532H35.5632H35.5944H35.6255H35.6567H35.6879H35.7191H35.7503H35.7815H35.8127H35.844H35.8752H35.9064H35.9376H35.9688H36H36.0312H36.0624H36.0936H36.1248H36.156H36.1872H36.2184H36.2496H36.2808H36.312H36.3432H36.3744H36.4056H36.4368H36.468H36.4992H36.5305H36.5617H36.5929H36.6241H36.6553H36.6865H36.7177H36.7489H36.7801H36.8113H36.8426H36.8738H36.905H36.9362H36.9674H36.9986H37.0298H37.061H37.0922H37.1235H37.1547H37.1859H37.2171H37.2483H37.2795H37.3107H37.3419H37.3732H37.4044H37.4356H37.4668H37.498H37.5292H37.5604H37.5917H37.6229H37.6541H37.6853H37.7165H37.7477H37.7789H37.8102H37.8414H37.8726H37.9038H37.935H37.9662H37.9975H38.0287H38.0599H38.0911H38.1223H38.1535H38.1847H38.216H38.2472H38.2784H38.3096H38.3408H38.372H38.4033H38.4345H38.4657H38.4969H38.5281H38.5593H38.5906H38.6218H38.653H38.6842H38.7154H38.7466H38.7778H38.8091H38.8403H38.8715H38.9027H38.9339H38.9651H38.9964H39.0276H39.0588H39.09H39.1212H39.1524H39.1836H39.2149H39.2461H39.2773H39.3085H39.3397H39.3709H39.4021H39.4334H39.4646H39.4958H39.527H39.5582H39.5894H39.6206H39.6518H39.6831H39.7143H39.7455H39.7767H39.8079H39.8391H39.8703H39.9015H39.9327H39.964H39.9952H40.0264H40.0576H40.0888H40.12H40.1512H40.1824H40.2136H40.2448H40.276H40.3073H40.3385H40.3697H40.4009H40.4321H40.4633H40.4945H40.5257H40.5569H40.5881H40.6193H40.6505H40.6817H40.7129H40.7441H40.7753H40.8065H40.8377H40.8689H40.9001H40.9313H40.9625H40.9937H41.0249H41.0561H41.0873H41.1185H41.1497H41.1809H41.2121H41.2433H41.2745H41.3057H41.3369H41.3681H41.3993H41.4305H41.4617H41.4929H41.5241H41.5553H41.5865H41.6177H41.6489H41.68H41.7112H41.7424H41.7736H41.8048H41.836H41.8672H41.8984H41.9296H41.9607H41.9919H42.0231H42.0543H42.0855H42.1167H42.1479H42.179H42.2102H42.2414H42.2726H42.3038H42.3349H42.3661H42.3973H42.4285H42.4597H42.4908H42.522H42.5532H42.5844H42.6155H42.6467H42.6779H42.7091H42.7402H42.7714H42.8026H42.8338H42.8649H42.8961H42.9273H42.9584H42.9896H43.0208H43.0519H43.0831H43.1143H43.1454H43.1766H43.2077H43.2389H43.2701H43.3012H43.3324H43.3636H43.3947H43.4259H43.457H43.4882H43.5193H43.5505H43.5816H43.6128H43.644H43.6751H43.7063H43.7374H43.7686H43.7997H43.8309H43.862H43.8932H43.9243H43.9554H43.9866H44.0177H44.0489H44.08H44.1112H44.1423H44.1734H44.2046H44.2357H44.2668H44.298H44.3291H44.3603H44.3914H44.4225H44.4537H44.4848H44.5159H44.547H44.5782H44.6093H44.6404H44.6715H44.7027H44.7338H44.7649H44.796H44.8272H44.8583H44.8894H44.9205H44.9516H44.9828H45.0139H45.045H45.0761H45.1072H45.1383H45.1694H45.2005H45.2317H45.2628H45.2939H45.325H45.3561H45.3872H45.4183H45.4494H45.4805H45.5116H45.5427H45.5738H45.6049H45.636H45.6671H45.6982H45.7293H45.7603H45.7914H45.8225H45.8536H45.8847H45.9158H45.9469H45.978H46.009H46.0401H46.0712H46.1023H46.1334H46.1644H46.1955H46.2266H46.2577H46.2887H46.3198H46.3509H47.1715L47.7518 145.302L74.1161 118.937L74.6964 118.357V117.536V4V2.01887H72.7152H57.6498H55.6687V4V110.472L39.286 126.854H37.4581L21.0754 110.472V4Z" fill="#E5E5E5" stroke="#E5E5E5" stroke-width="3.96226"/>
</svg>
